<mxfile host="app.diagrams.net" modified="2023-07-06T07:26:16.457Z" agent="Mozilla/5.0 (Windows NT 10.0; Win64; x64) AppleWebKit/537.36 (KHTML, like Gecko) Chrome/114.0.0.0 Safari/537.36" etag="HF1VnB_zzdAXm3dEaRmE" version="21.6.1" type="github">
  <diagram id="kgpKYQtTHZ0yAKxKKP6v" name="Page-1">
    <mxGraphModel dx="1434" dy="700" grid="1" gridSize="10" guides="1" tooltips="1" connect="1" arrows="1" fold="1" page="1" pageScale="1" pageWidth="850" pageHeight="1100" math="0" shadow="0">
      <root>
        <mxCell id="0" />
        <mxCell id="1" parent="0" />
        <mxCell id="3nuBFxr9cyL0pnOWT2aG-1" value="" style="shape=table;childLayout=tableLayout;startSize=40;collapsible=0;recursiveResize=0;expand=0;fillColor=#d5e8d4;fontStyle=1;points=[[0,0,0,0,0],[0,0.25,0,0,0],[0,0.5,0,0,0],[0,0.75,0,0,0],[0,1,0,0,0],[0.25,0,0,0,0],[0.25,1,0,0,0],[0.5,0,0,0,0],[0.5,1,0,0,0],[0.75,0,0,0,0],[0.75,1,0,0,0],[1,0,0,0,0],[1,0.25,0,0,0],[1,0.5,0,0,0],[1,0.75,0,0,0],[1,1,0,0,0]];strokeColor=#82b366;" parent="1" vertex="1">
          <mxGeometry y="200" width="1640" height="1080" as="geometry" />
        </mxCell>
        <mxCell id="3nuBFxr9cyL0pnOWT2aG-3" value="开发" style="shape=tableRow;horizontal=0;swimlaneHead=0;swimlaneBody=0;top=0;left=0;bottom=0;right=0;fillColor=none;points=[[0,0.5],[1,0.5]];portConstraint=eastwest;startSize=40;collapsible=0;recursiveResize=0;expand=0;fontStyle=1;" parent="3nuBFxr9cyL0pnOWT2aG-1" vertex="1">
          <mxGeometry y="40" width="1640" height="260" as="geometry" />
        </mxCell>
        <mxCell id="3nuBFxr9cyL0pnOWT2aG-4" value="" style="swimlane;swimlaneHead=0;swimlaneBody=0;connectable=0;fillColor=none;startSize=0;collapsible=0;recursiveResize=0;expand=0;fontStyle=1;dashed=1;strokeWidth=0;swimlaneFillColor=default;" parent="3nuBFxr9cyL0pnOWT2aG-3" vertex="1">
          <mxGeometry x="40" width="380" height="260" as="geometry">
            <mxRectangle width="380" height="260" as="alternateBounds" />
          </mxGeometry>
        </mxCell>
        <mxCell id="671XhVf-OirEY2XruRfS-42" value="" style="edgeStyle=orthogonalEdgeStyle;rounded=0;orthogonalLoop=1;jettySize=auto;html=1;" edge="1" parent="3nuBFxr9cyL0pnOWT2aG-4" source="671XhVf-OirEY2XruRfS-16" target="671XhVf-OirEY2XruRfS-41">
          <mxGeometry relative="1" as="geometry" />
        </mxCell>
        <mxCell id="671XhVf-OirEY2XruRfS-16" value="Start" style="strokeWidth=2;html=1;shape=mxgraph.flowchart.start_1;whiteSpace=wrap;" vertex="1" parent="3nuBFxr9cyL0pnOWT2aG-4">
          <mxGeometry x="80" y="40" width="100" height="60" as="geometry" />
        </mxCell>
        <mxCell id="671XhVf-OirEY2XruRfS-41" value="拉取代码" style="whiteSpace=wrap;html=1;strokeWidth=2;" vertex="1" parent="3nuBFxr9cyL0pnOWT2aG-4">
          <mxGeometry x="250" y="40" width="120" height="60" as="geometry" />
        </mxCell>
        <mxCell id="3nuBFxr9cyL0pnOWT2aG-8" value="" style="swimlane;swimlaneHead=0;swimlaneBody=0;connectable=0;fillColor=none;startSize=0;collapsible=0;recursiveResize=0;expand=0;fontStyle=1;swimlaneFillColor=default;" parent="3nuBFxr9cyL0pnOWT2aG-3" vertex="1">
          <mxGeometry x="420" width="650" height="260" as="geometry">
            <mxRectangle width="650" height="260" as="alternateBounds" />
          </mxGeometry>
        </mxCell>
        <mxCell id="671XhVf-OirEY2XruRfS-24" value="" style="edgeStyle=orthogonalEdgeStyle;rounded=0;orthogonalLoop=1;jettySize=auto;html=1;" edge="1" parent="3nuBFxr9cyL0pnOWT2aG-8" source="671XhVf-OirEY2XruRfS-20" target="671XhVf-OirEY2XruRfS-23">
          <mxGeometry relative="1" as="geometry" />
        </mxCell>
        <mxCell id="671XhVf-OirEY2XruRfS-25" value="否" style="edgeLabel;html=1;align=center;verticalAlign=middle;resizable=0;points=[];" vertex="1" connectable="0" parent="671XhVf-OirEY2XruRfS-24">
          <mxGeometry x="0.025" y="-2" relative="1" as="geometry">
            <mxPoint as="offset" />
          </mxGeometry>
        </mxCell>
        <mxCell id="671XhVf-OirEY2XruRfS-28" value="" style="edgeStyle=orthogonalEdgeStyle;rounded=0;orthogonalLoop=1;jettySize=auto;html=1;" edge="1" parent="3nuBFxr9cyL0pnOWT2aG-8" source="671XhVf-OirEY2XruRfS-20" target="671XhVf-OirEY2XruRfS-27">
          <mxGeometry relative="1" as="geometry" />
        </mxCell>
        <mxCell id="671XhVf-OirEY2XruRfS-20" value="质量门禁" style="rhombus;whiteSpace=wrap;html=1;strokeWidth=2;" vertex="1" parent="3nuBFxr9cyL0pnOWT2aG-8">
          <mxGeometry x="58" y="30" width="80" height="80" as="geometry" />
        </mxCell>
        <mxCell id="671XhVf-OirEY2XruRfS-23" value="结束" style="ellipse;whiteSpace=wrap;html=1;strokeWidth=2;" vertex="1" parent="3nuBFxr9cyL0pnOWT2aG-8">
          <mxGeometry x="58" y="170" width="80" height="80" as="geometry" />
        </mxCell>
        <mxCell id="671XhVf-OirEY2XruRfS-31" value="" style="edgeStyle=orthogonalEdgeStyle;rounded=0;orthogonalLoop=1;jettySize=auto;html=1;" edge="1" parent="3nuBFxr9cyL0pnOWT2aG-8" source="671XhVf-OirEY2XruRfS-27" target="671XhVf-OirEY2XruRfS-30">
          <mxGeometry relative="1" as="geometry" />
        </mxCell>
        <mxCell id="671XhVf-OirEY2XruRfS-32" value="PUSH" style="edgeLabel;html=1;align=center;verticalAlign=middle;resizable=0;points=[];" vertex="1" connectable="0" parent="671XhVf-OirEY2XruRfS-31">
          <mxGeometry x="-0.225" relative="1" as="geometry">
            <mxPoint as="offset" />
          </mxGeometry>
        </mxCell>
        <mxCell id="671XhVf-OirEY2XruRfS-27" value="构建&lt;br&gt;Maven/Npm" style="whiteSpace=wrap;html=1;strokeWidth=2;" vertex="1" parent="3nuBFxr9cyL0pnOWT2aG-8">
          <mxGeometry x="243" y="40" width="120" height="60" as="geometry" />
        </mxCell>
        <mxCell id="671XhVf-OirEY2XruRfS-36" value="" style="edgeStyle=orthogonalEdgeStyle;rounded=0;orthogonalLoop=1;jettySize=auto;html=1;" edge="1" parent="3nuBFxr9cyL0pnOWT2aG-8" source="671XhVf-OirEY2XruRfS-30" target="671XhVf-OirEY2XruRfS-35">
          <mxGeometry relative="1" as="geometry" />
        </mxCell>
        <mxCell id="671XhVf-OirEY2XruRfS-30" value="制品库" style="whiteSpace=wrap;html=1;strokeWidth=2;" vertex="1" parent="3nuBFxr9cyL0pnOWT2aG-8">
          <mxGeometry x="483" y="40" width="120" height="60" as="geometry" />
        </mxCell>
        <mxCell id="671XhVf-OirEY2XruRfS-35" value="部署集群" style="whiteSpace=wrap;html=1;strokeWidth=2;" vertex="1" parent="3nuBFxr9cyL0pnOWT2aG-8">
          <mxGeometry x="683" y="40" width="120" height="60" as="geometry" />
        </mxCell>
        <mxCell id="3nuBFxr9cyL0pnOWT2aG-11" value="" style="swimlane;swimlaneHead=0;swimlaneBody=0;connectable=0;fillColor=none;startSize=0;collapsible=0;recursiveResize=0;expand=0;fontStyle=1;" parent="3nuBFxr9cyL0pnOWT2aG-3" vertex="1">
          <mxGeometry x="1070" width="570" height="260" as="geometry">
            <mxRectangle width="570" height="260" as="alternateBounds" />
          </mxGeometry>
        </mxCell>
        <mxCell id="671XhVf-OirEY2XruRfS-40" value="" style="edgeStyle=orthogonalEdgeStyle;rounded=0;orthogonalLoop=1;jettySize=auto;html=1;" edge="1" parent="3nuBFxr9cyL0pnOWT2aG-11" source="671XhVf-OirEY2XruRfS-37" target="671XhVf-OirEY2XruRfS-39">
          <mxGeometry relative="1" as="geometry" />
        </mxCell>
        <mxCell id="671XhVf-OirEY2XruRfS-37" value="检测状态" style="whiteSpace=wrap;html=1;strokeWidth=2;" vertex="1" parent="3nuBFxr9cyL0pnOWT2aG-11">
          <mxGeometry x="210" y="40" width="120" height="60" as="geometry" />
        </mxCell>
        <mxCell id="671XhVf-OirEY2XruRfS-39" value="结束" style="ellipse;whiteSpace=wrap;html=1;strokeWidth=2;" vertex="1" parent="3nuBFxr9cyL0pnOWT2aG-11">
          <mxGeometry x="430" y="30" width="80" height="80" as="geometry" />
        </mxCell>
        <mxCell id="671XhVf-OirEY2XruRfS-43" style="edgeStyle=orthogonalEdgeStyle;rounded=0;orthogonalLoop=1;jettySize=auto;html=1;" edge="1" parent="3nuBFxr9cyL0pnOWT2aG-3" source="671XhVf-OirEY2XruRfS-41" target="671XhVf-OirEY2XruRfS-20">
          <mxGeometry relative="1" as="geometry" />
        </mxCell>
        <mxCell id="671XhVf-OirEY2XruRfS-44" value="测试" style="shape=tableRow;horizontal=0;swimlaneHead=0;swimlaneBody=0;top=0;left=0;bottom=0;right=0;fillColor=none;points=[[0,0.5],[1,0.5]];portConstraint=eastwest;startSize=40;collapsible=0;recursiveResize=0;expand=0;fontStyle=1;" vertex="1" parent="3nuBFxr9cyL0pnOWT2aG-1">
          <mxGeometry y="300" width="1640" height="260" as="geometry" />
        </mxCell>
        <mxCell id="671XhVf-OirEY2XruRfS-45" value="" style="swimlane;swimlaneHead=0;swimlaneBody=0;connectable=0;fillColor=none;startSize=0;collapsible=0;recursiveResize=0;expand=0;fontStyle=1;dashed=1;strokeWidth=0;swimlaneFillColor=default;" vertex="1" parent="671XhVf-OirEY2XruRfS-44">
          <mxGeometry x="40" width="380" height="260" as="geometry">
            <mxRectangle width="380" height="260" as="alternateBounds" />
          </mxGeometry>
        </mxCell>
        <mxCell id="671XhVf-OirEY2XruRfS-46" value="" style="edgeStyle=orthogonalEdgeStyle;rounded=0;orthogonalLoop=1;jettySize=auto;html=1;" edge="1" parent="671XhVf-OirEY2XruRfS-45" source="671XhVf-OirEY2XruRfS-47" target="671XhVf-OirEY2XruRfS-48">
          <mxGeometry relative="1" as="geometry" />
        </mxCell>
        <mxCell id="671XhVf-OirEY2XruRfS-47" value="Start" style="strokeWidth=2;html=1;shape=mxgraph.flowchart.start_1;whiteSpace=wrap;" vertex="1" parent="671XhVf-OirEY2XruRfS-45">
          <mxGeometry x="80" y="40" width="100" height="60" as="geometry" />
        </mxCell>
        <mxCell id="671XhVf-OirEY2XruRfS-48" value="拉取代码" style="whiteSpace=wrap;html=1;strokeWidth=2;" vertex="1" parent="671XhVf-OirEY2XruRfS-45">
          <mxGeometry x="250" y="40" width="120" height="60" as="geometry" />
        </mxCell>
        <mxCell id="671XhVf-OirEY2XruRfS-49" value="" style="swimlane;swimlaneHead=0;swimlaneBody=0;connectable=0;fillColor=none;startSize=0;collapsible=0;recursiveResize=0;expand=0;fontStyle=1;swimlaneFillColor=default;" vertex="1" parent="671XhVf-OirEY2XruRfS-44">
          <mxGeometry x="420" width="650" height="260" as="geometry">
            <mxRectangle width="650" height="260" as="alternateBounds" />
          </mxGeometry>
        </mxCell>
        <mxCell id="671XhVf-OirEY2XruRfS-50" value="" style="edgeStyle=orthogonalEdgeStyle;rounded=0;orthogonalLoop=1;jettySize=auto;html=1;" edge="1" parent="671XhVf-OirEY2XruRfS-49" source="671XhVf-OirEY2XruRfS-53" target="671XhVf-OirEY2XruRfS-54">
          <mxGeometry relative="1" as="geometry" />
        </mxCell>
        <mxCell id="671XhVf-OirEY2XruRfS-51" value="否" style="edgeLabel;html=1;align=center;verticalAlign=middle;resizable=0;points=[];" vertex="1" connectable="0" parent="671XhVf-OirEY2XruRfS-50">
          <mxGeometry x="0.025" y="-2" relative="1" as="geometry">
            <mxPoint as="offset" />
          </mxGeometry>
        </mxCell>
        <mxCell id="671XhVf-OirEY2XruRfS-52" value="" style="edgeStyle=orthogonalEdgeStyle;rounded=0;orthogonalLoop=1;jettySize=auto;html=1;" edge="1" parent="671XhVf-OirEY2XruRfS-49" source="671XhVf-OirEY2XruRfS-53" target="671XhVf-OirEY2XruRfS-57">
          <mxGeometry relative="1" as="geometry" />
        </mxCell>
        <mxCell id="671XhVf-OirEY2XruRfS-53" value="质量门禁" style="rhombus;whiteSpace=wrap;html=1;strokeWidth=2;" vertex="1" parent="671XhVf-OirEY2XruRfS-49">
          <mxGeometry x="58" y="30" width="80" height="80" as="geometry" />
        </mxCell>
        <mxCell id="671XhVf-OirEY2XruRfS-54" value="结束" style="ellipse;whiteSpace=wrap;html=1;strokeWidth=2;" vertex="1" parent="671XhVf-OirEY2XruRfS-49">
          <mxGeometry x="58" y="170" width="80" height="80" as="geometry" />
        </mxCell>
        <mxCell id="671XhVf-OirEY2XruRfS-55" value="" style="edgeStyle=orthogonalEdgeStyle;rounded=0;orthogonalLoop=1;jettySize=auto;html=1;" edge="1" parent="671XhVf-OirEY2XruRfS-49" source="671XhVf-OirEY2XruRfS-57" target="671XhVf-OirEY2XruRfS-59">
          <mxGeometry relative="1" as="geometry" />
        </mxCell>
        <mxCell id="671XhVf-OirEY2XruRfS-56" value="PUSH" style="edgeLabel;html=1;align=center;verticalAlign=middle;resizable=0;points=[];" vertex="1" connectable="0" parent="671XhVf-OirEY2XruRfS-55">
          <mxGeometry x="-0.225" relative="1" as="geometry">
            <mxPoint as="offset" />
          </mxGeometry>
        </mxCell>
        <mxCell id="671XhVf-OirEY2XruRfS-57" value="构建&lt;br&gt;Maven/Npm" style="whiteSpace=wrap;html=1;strokeWidth=2;" vertex="1" parent="671XhVf-OirEY2XruRfS-49">
          <mxGeometry x="243" y="40" width="120" height="60" as="geometry" />
        </mxCell>
        <mxCell id="671XhVf-OirEY2XruRfS-58" value="" style="edgeStyle=orthogonalEdgeStyle;rounded=0;orthogonalLoop=1;jettySize=auto;html=1;" edge="1" parent="671XhVf-OirEY2XruRfS-49" source="671XhVf-OirEY2XruRfS-59" target="671XhVf-OirEY2XruRfS-60">
          <mxGeometry relative="1" as="geometry" />
        </mxCell>
        <mxCell id="671XhVf-OirEY2XruRfS-59" value="制品库" style="whiteSpace=wrap;html=1;strokeWidth=2;" vertex="1" parent="671XhVf-OirEY2XruRfS-49">
          <mxGeometry x="483" y="40" width="120" height="60" as="geometry" />
        </mxCell>
        <mxCell id="671XhVf-OirEY2XruRfS-60" value="部署集群" style="whiteSpace=wrap;html=1;strokeWidth=2;" vertex="1" parent="671XhVf-OirEY2XruRfS-49">
          <mxGeometry x="683" y="40" width="120" height="60" as="geometry" />
        </mxCell>
        <mxCell id="671XhVf-OirEY2XruRfS-61" value="" style="swimlane;swimlaneHead=0;swimlaneBody=0;connectable=0;fillColor=none;startSize=0;collapsible=0;recursiveResize=0;expand=0;fontStyle=1;" vertex="1" parent="671XhVf-OirEY2XruRfS-44">
          <mxGeometry x="1070" width="570" height="260" as="geometry">
            <mxRectangle width="570" height="260" as="alternateBounds" />
          </mxGeometry>
        </mxCell>
        <mxCell id="671XhVf-OirEY2XruRfS-62" value="" style="edgeStyle=orthogonalEdgeStyle;rounded=0;orthogonalLoop=1;jettySize=auto;html=1;" edge="1" parent="671XhVf-OirEY2XruRfS-61" source="671XhVf-OirEY2XruRfS-63" target="671XhVf-OirEY2XruRfS-64">
          <mxGeometry relative="1" as="geometry" />
        </mxCell>
        <mxCell id="671XhVf-OirEY2XruRfS-63" value="检测状态" style="whiteSpace=wrap;html=1;strokeWidth=2;" vertex="1" parent="671XhVf-OirEY2XruRfS-61">
          <mxGeometry x="210" y="40" width="120" height="60" as="geometry" />
        </mxCell>
        <mxCell id="671XhVf-OirEY2XruRfS-64" value="结束" style="ellipse;whiteSpace=wrap;html=1;strokeWidth=2;" vertex="1" parent="671XhVf-OirEY2XruRfS-61">
          <mxGeometry x="430" y="30" width="80" height="80" as="geometry" />
        </mxCell>
        <mxCell id="671XhVf-OirEY2XruRfS-66" style="edgeStyle=orthogonalEdgeStyle;rounded=0;orthogonalLoop=1;jettySize=auto;html=1;" edge="1" parent="671XhVf-OirEY2XruRfS-44" source="671XhVf-OirEY2XruRfS-48" target="671XhVf-OirEY2XruRfS-53">
          <mxGeometry relative="1" as="geometry" />
        </mxCell>
        <mxCell id="671XhVf-OirEY2XruRfS-111" style="edgeStyle=orthogonalEdgeStyle;rounded=0;orthogonalLoop=1;jettySize=auto;html=1;" edge="1" parent="671XhVf-OirEY2XruRfS-44" source="671XhVf-OirEY2XruRfS-60" target="671XhVf-OirEY2XruRfS-63">
          <mxGeometry relative="1" as="geometry" />
        </mxCell>
        <mxCell id="671XhVf-OirEY2XruRfS-67" value="预生产" style="shape=tableRow;horizontal=0;swimlaneHead=0;swimlaneBody=0;top=0;left=0;bottom=0;right=0;fillColor=none;points=[[0,0.5],[1,0.5]];portConstraint=eastwest;startSize=40;collapsible=0;recursiveResize=0;expand=0;fontStyle=1;" vertex="1" parent="3nuBFxr9cyL0pnOWT2aG-1">
          <mxGeometry y="560" width="1640" height="260" as="geometry" />
        </mxCell>
        <mxCell id="671XhVf-OirEY2XruRfS-68" value="" style="swimlane;swimlaneHead=0;swimlaneBody=0;connectable=0;fillColor=none;startSize=0;collapsible=0;recursiveResize=0;expand=0;fontStyle=1;dashed=1;strokeWidth=0;swimlaneFillColor=default;" vertex="1" parent="671XhVf-OirEY2XruRfS-67">
          <mxGeometry x="40" width="380" height="260" as="geometry">
            <mxRectangle width="380" height="260" as="alternateBounds" />
          </mxGeometry>
        </mxCell>
        <mxCell id="671XhVf-OirEY2XruRfS-70" value="Start" style="strokeWidth=2;html=1;shape=mxgraph.flowchart.start_1;whiteSpace=wrap;" vertex="1" parent="671XhVf-OirEY2XruRfS-68">
          <mxGeometry x="80" y="40" width="100" height="60" as="geometry" />
        </mxCell>
        <mxCell id="671XhVf-OirEY2XruRfS-72" value="" style="swimlane;swimlaneHead=0;swimlaneBody=0;connectable=0;fillColor=none;startSize=0;collapsible=0;recursiveResize=0;expand=0;fontStyle=1;swimlaneFillColor=default;" vertex="1" parent="671XhVf-OirEY2XruRfS-67">
          <mxGeometry x="420" width="650" height="260" as="geometry">
            <mxRectangle width="650" height="260" as="alternateBounds" />
          </mxGeometry>
        </mxCell>
        <mxCell id="671XhVf-OirEY2XruRfS-81" value="" style="edgeStyle=orthogonalEdgeStyle;rounded=0;orthogonalLoop=1;jettySize=auto;html=1;" edge="1" parent="671XhVf-OirEY2XruRfS-72" source="671XhVf-OirEY2XruRfS-82" target="671XhVf-OirEY2XruRfS-83">
          <mxGeometry relative="1" as="geometry" />
        </mxCell>
        <mxCell id="671XhVf-OirEY2XruRfS-82" value="制品库" style="whiteSpace=wrap;html=1;strokeWidth=2;" vertex="1" parent="671XhVf-OirEY2XruRfS-72">
          <mxGeometry x="483" y="40" width="120" height="60" as="geometry" />
        </mxCell>
        <mxCell id="671XhVf-OirEY2XruRfS-83" value="部署集群" style="whiteSpace=wrap;html=1;strokeWidth=2;" vertex="1" parent="671XhVf-OirEY2XruRfS-72">
          <mxGeometry x="683" y="40" width="120" height="60" as="geometry" />
        </mxCell>
        <mxCell id="671XhVf-OirEY2XruRfS-84" value="" style="swimlane;swimlaneHead=0;swimlaneBody=0;connectable=0;fillColor=none;startSize=0;collapsible=0;recursiveResize=0;expand=0;fontStyle=1;" vertex="1" parent="671XhVf-OirEY2XruRfS-67">
          <mxGeometry x="1070" width="570" height="260" as="geometry">
            <mxRectangle width="570" height="260" as="alternateBounds" />
          </mxGeometry>
        </mxCell>
        <mxCell id="671XhVf-OirEY2XruRfS-92" value="" style="edgeStyle=orthogonalEdgeStyle;rounded=0;orthogonalLoop=1;jettySize=auto;html=1;" edge="1" parent="671XhVf-OirEY2XruRfS-84" source="671XhVf-OirEY2XruRfS-86" target="671XhVf-OirEY2XruRfS-91">
          <mxGeometry relative="1" as="geometry" />
        </mxCell>
        <mxCell id="671XhVf-OirEY2XruRfS-86" value="检测状态" style="whiteSpace=wrap;html=1;strokeWidth=2;" vertex="1" parent="671XhVf-OirEY2XruRfS-84">
          <mxGeometry x="210" y="40" width="120" height="60" as="geometry" />
        </mxCell>
        <mxCell id="671XhVf-OirEY2XruRfS-94" value="" style="edgeStyle=orthogonalEdgeStyle;rounded=0;orthogonalLoop=1;jettySize=auto;html=1;" edge="1" parent="671XhVf-OirEY2XruRfS-84" source="671XhVf-OirEY2XruRfS-91" target="671XhVf-OirEY2XruRfS-93">
          <mxGeometry relative="1" as="geometry" />
        </mxCell>
        <mxCell id="671XhVf-OirEY2XruRfS-91" value="发送邮件" style="whiteSpace=wrap;html=1;strokeWidth=2;" vertex="1" parent="671XhVf-OirEY2XruRfS-84">
          <mxGeometry x="410" y="40" width="120" height="60" as="geometry" />
        </mxCell>
        <mxCell id="671XhVf-OirEY2XruRfS-93" value="结束" style="ellipse;whiteSpace=wrap;html=1;strokeWidth=2;" vertex="1" parent="671XhVf-OirEY2XruRfS-84">
          <mxGeometry x="430" y="170" width="80" height="80" as="geometry" />
        </mxCell>
        <mxCell id="671XhVf-OirEY2XruRfS-69" value="" style="edgeStyle=orthogonalEdgeStyle;rounded=0;orthogonalLoop=1;jettySize=auto;html=1;" edge="1" parent="671XhVf-OirEY2XruRfS-67" source="671XhVf-OirEY2XruRfS-70" target="671XhVf-OirEY2XruRfS-82">
          <mxGeometry relative="1" as="geometry">
            <mxPoint x="290" y="70" as="targetPoint" />
          </mxGeometry>
        </mxCell>
        <mxCell id="671XhVf-OirEY2XruRfS-112" style="edgeStyle=orthogonalEdgeStyle;rounded=0;orthogonalLoop=1;jettySize=auto;html=1;" edge="1" parent="671XhVf-OirEY2XruRfS-67" source="671XhVf-OirEY2XruRfS-83" target="671XhVf-OirEY2XruRfS-86">
          <mxGeometry relative="1" as="geometry" />
        </mxCell>
        <mxCell id="671XhVf-OirEY2XruRfS-95" value="生产" style="shape=tableRow;horizontal=0;swimlaneHead=0;swimlaneBody=0;top=0;left=0;bottom=0;right=0;fillColor=none;points=[[0,0.5],[1,0.5]];portConstraint=eastwest;startSize=40;collapsible=0;recursiveResize=0;expand=0;fontStyle=1;" vertex="1" parent="3nuBFxr9cyL0pnOWT2aG-1">
          <mxGeometry y="820" width="1640" height="260" as="geometry" />
        </mxCell>
        <mxCell id="671XhVf-OirEY2XruRfS-96" value="" style="swimlane;swimlaneHead=0;swimlaneBody=0;connectable=0;fillColor=none;startSize=0;collapsible=0;recursiveResize=0;expand=0;fontStyle=1;dashed=1;strokeWidth=0;swimlaneFillColor=default;" vertex="1" parent="671XhVf-OirEY2XruRfS-95">
          <mxGeometry x="40" width="380" height="260" as="geometry">
            <mxRectangle width="380" height="260" as="alternateBounds" />
          </mxGeometry>
        </mxCell>
        <mxCell id="671XhVf-OirEY2XruRfS-97" value="Start" style="strokeWidth=2;html=1;shape=mxgraph.flowchart.start_1;whiteSpace=wrap;" vertex="1" parent="671XhVf-OirEY2XruRfS-96">
          <mxGeometry x="80" y="40" width="100" height="60" as="geometry" />
        </mxCell>
        <mxCell id="671XhVf-OirEY2XruRfS-98" value="" style="swimlane;swimlaneHead=0;swimlaneBody=0;connectable=0;fillColor=none;startSize=0;collapsible=0;recursiveResize=0;expand=0;fontStyle=1;swimlaneFillColor=default;" vertex="1" parent="671XhVf-OirEY2XruRfS-95">
          <mxGeometry x="420" width="650" height="260" as="geometry">
            <mxRectangle width="650" height="260" as="alternateBounds" />
          </mxGeometry>
        </mxCell>
        <mxCell id="671XhVf-OirEY2XruRfS-99" value="" style="edgeStyle=orthogonalEdgeStyle;rounded=0;orthogonalLoop=1;jettySize=auto;html=1;" edge="1" parent="671XhVf-OirEY2XruRfS-98" source="671XhVf-OirEY2XruRfS-100" target="671XhVf-OirEY2XruRfS-101">
          <mxGeometry relative="1" as="geometry" />
        </mxCell>
        <mxCell id="671XhVf-OirEY2XruRfS-100" value="制品库" style="whiteSpace=wrap;html=1;strokeWidth=2;" vertex="1" parent="671XhVf-OirEY2XruRfS-98">
          <mxGeometry x="483" y="40" width="120" height="60" as="geometry" />
        </mxCell>
        <mxCell id="671XhVf-OirEY2XruRfS-101" value="部署集群" style="whiteSpace=wrap;html=1;strokeWidth=2;" vertex="1" parent="671XhVf-OirEY2XruRfS-98">
          <mxGeometry x="683" y="40" width="120" height="60" as="geometry" />
        </mxCell>
        <mxCell id="671XhVf-OirEY2XruRfS-102" value="" style="swimlane;swimlaneHead=0;swimlaneBody=0;connectable=0;fillColor=none;startSize=0;collapsible=0;recursiveResize=0;expand=0;fontStyle=1;" vertex="1" parent="671XhVf-OirEY2XruRfS-95">
          <mxGeometry x="1070" width="570" height="260" as="geometry">
            <mxRectangle width="570" height="260" as="alternateBounds" />
          </mxGeometry>
        </mxCell>
        <mxCell id="671XhVf-OirEY2XruRfS-103" value="" style="edgeStyle=orthogonalEdgeStyle;rounded=0;orthogonalLoop=1;jettySize=auto;html=1;" edge="1" parent="671XhVf-OirEY2XruRfS-102" source="671XhVf-OirEY2XruRfS-104" target="671XhVf-OirEY2XruRfS-106">
          <mxGeometry relative="1" as="geometry" />
        </mxCell>
        <mxCell id="671XhVf-OirEY2XruRfS-104" value="检测状态" style="whiteSpace=wrap;html=1;strokeWidth=2;" vertex="1" parent="671XhVf-OirEY2XruRfS-102">
          <mxGeometry x="210" y="40" width="120" height="60" as="geometry" />
        </mxCell>
        <mxCell id="671XhVf-OirEY2XruRfS-105" value="" style="edgeStyle=orthogonalEdgeStyle;rounded=0;orthogonalLoop=1;jettySize=auto;html=1;" edge="1" parent="671XhVf-OirEY2XruRfS-102" source="671XhVf-OirEY2XruRfS-106" target="671XhVf-OirEY2XruRfS-107">
          <mxGeometry relative="1" as="geometry" />
        </mxCell>
        <mxCell id="671XhVf-OirEY2XruRfS-106" value="发送邮件" style="whiteSpace=wrap;html=1;strokeWidth=2;" vertex="1" parent="671XhVf-OirEY2XruRfS-102">
          <mxGeometry x="410" y="40" width="120" height="60" as="geometry" />
        </mxCell>
        <mxCell id="671XhVf-OirEY2XruRfS-107" value="结束" style="ellipse;whiteSpace=wrap;html=1;strokeWidth=2;" vertex="1" parent="671XhVf-OirEY2XruRfS-102">
          <mxGeometry x="430" y="170" width="80" height="80" as="geometry" />
        </mxCell>
        <mxCell id="671XhVf-OirEY2XruRfS-108" value="" style="edgeStyle=orthogonalEdgeStyle;rounded=0;orthogonalLoop=1;jettySize=auto;html=1;" edge="1" parent="671XhVf-OirEY2XruRfS-95" source="671XhVf-OirEY2XruRfS-97" target="671XhVf-OirEY2XruRfS-100">
          <mxGeometry relative="1" as="geometry">
            <mxPoint x="290" y="70" as="targetPoint" />
          </mxGeometry>
        </mxCell>
        <mxCell id="671XhVf-OirEY2XruRfS-113" style="edgeStyle=orthogonalEdgeStyle;rounded=0;orthogonalLoop=1;jettySize=auto;html=1;" edge="1" parent="671XhVf-OirEY2XruRfS-95" source="671XhVf-OirEY2XruRfS-101" target="671XhVf-OirEY2XruRfS-104">
          <mxGeometry relative="1" as="geometry" />
        </mxCell>
        <mxCell id="671XhVf-OirEY2XruRfS-7" value="CD" style="text;strokeColor=none;fillColor=none;html=1;fontSize=24;fontStyle=1;verticalAlign=middle;align=center;" vertex="1" parent="1">
          <mxGeometry x="1310" y="200" width="100" height="40" as="geometry" />
        </mxCell>
        <mxCell id="671XhVf-OirEY2XruRfS-109" value="" style="rounded=0;whiteSpace=wrap;html=1;fillColor=#dae8fc;strokeColor=#6c8ebf;" vertex="1" parent="1">
          <mxGeometry y="200" width="1070" height="40" as="geometry" />
        </mxCell>
        <mxCell id="671XhVf-OirEY2XruRfS-110" value="CD" style="text;strokeColor=none;fillColor=none;html=1;fontSize=24;fontStyle=1;verticalAlign=middle;align=center;" vertex="1" parent="1">
          <mxGeometry x="540" y="200" width="100" height="40" as="geometry" />
        </mxCell>
      </root>
    </mxGraphModel>
  </diagram>
</mxfile>
